<?xml version="1.0" encoding="utf-8" standalone="no"?>
<!DOCTYPE svg PUBLIC "-//W3C//DTD SVG 1.1//EN"
  "http://www.w3.org/Graphics/SVG/1.1/DTD/svg11.dtd">
<svg xmlns:xlink="http://www.w3.org/1999/xlink" width="720pt" height="504pt" viewBox="0 0 720 504" xmlns="http://www.w3.org/2000/svg" version="1.1">
 <metadata>
  <rdf:RDF xmlns:dc="http://purl.org/dc/elements/1.1/" xmlns:cc="http://creativecommons.org/ns#" xmlns:rdf="http://www.w3.org/1999/02/22-rdf-syntax-ns#">
   <cc:Work>
    <dc:type rdf:resource="http://purl.org/dc/dcmitype/StillImage"/>
    <dc:date>2024-02-22T13:48:56.997400</dc:date>
    <dc:format>image/svg+xml</dc:format>
    <dc:creator>
     <cc:Agent>
      <dc:title>Matplotlib v3.7.2, https://matplotlib.org/</dc:title>
     </cc:Agent>
    </dc:creator>
   </cc:Work>
  </rdf:RDF>
 </metadata>
 <defs>
  <style type="text/css">*{stroke-linejoin: round; stroke-linecap: butt}</style>
 </defs>
 <g id="figure_1">
  <g id="patch_1">
   <path d="M 0 504 
L 720 504 
L 720 0 
L 0 0 
z
" style="fill: #ffffff"/>
  </g>
  <g id="axes_1">
   <g id="patch_2">
    <path d="M 94.08 419.3475 
L 698.4 419.3475 
L 698.4 29.225625 
L 94.08 29.225625 
z
" style="fill: #ffffff"/>
   </g>
   <g id="matplotlib.axis_1">
    <g id="xtick_1">
     <g id="line2d_1">
      <path d="M 137.245714 419.3475 
L 137.245714 29.225625 
" clip-path="url(#p2b4fb62203)" style="fill: none; stroke: #cccccc; stroke-width: 1.5; stroke-linecap: round"/>
     </g>
     <g id="text_1">
      <!-- −0.006 -->
      <g style="fill: #262626" transform="translate(100.925089 448.750977) scale(0.2475 -0.2475)">
       <defs>
        <path id="STIXGeneral-Regular-2212" d="M 3974 1408 
L 410 1408 
L 410 1830 
L 3974 1830 
L 3974 1408 
z
" transform="scale(0.015625)"/>
        <path id="STIXGeneral-Regular-30" d="M 3046 2112 
Q 3046 1683 2963 1302 
Q 2880 922 2717 602 
Q 2554 282 2266 96 
Q 1978 -90 1600 -90 
Q 1210 -90 915 108 
Q 621 307 461 640 
Q 301 973 227 1350 
Q 154 1728 154 2150 
Q 154 2746 301 3222 
Q 448 3699 790 4012 
Q 1133 4326 1626 4326 
Q 2253 4326 2649 3712 
Q 3046 3098 3046 2112 
z
M 2432 2080 
Q 2432 3091 2217 3625 
Q 2003 4160 1587 4160 
Q 1190 4160 979 3622 
Q 768 3085 768 2106 
Q 768 1120 979 598 
Q 1190 77 1600 77 
Q 2003 77 2217 598 
Q 2432 1120 2432 2080 
z
" transform="scale(0.015625)"/>
        <path id="STIXGeneral-Regular-2e" d="M 1158 275 
Q 1158 134 1052 32 
Q 947 -70 800 -70 
Q 653 -70 550 32 
Q 448 134 448 281 
Q 448 429 553 534 
Q 659 640 806 640 
Q 947 640 1052 531 
Q 1158 422 1158 275 
z
" transform="scale(0.015625)"/>
        <path id="STIXGeneral-Regular-36" d="M 2854 4378 
L 2867 4275 
Q 2112 4154 1606 3664 
Q 1101 3174 973 2451 
Q 1344 2739 1786 2739 
Q 2349 2739 2672 2380 
Q 2995 2022 2995 1402 
Q 2995 774 2669 378 
Q 2291 -90 1651 -90 
Q 870 -90 518 557 
Q 218 1107 218 1786 
Q 218 2835 915 3552 
Q 1312 3962 1731 4131 
Q 2150 4301 2854 4378 
z
M 2419 1203 
Q 2419 2445 1555 2445 
Q 1235 2445 1024 2275 
Q 813 2106 813 1702 
Q 813 954 1046 522 
Q 1280 90 1722 90 
Q 2061 90 2240 394 
Q 2419 698 2419 1203 
z
" transform="scale(0.015625)"/>
       </defs>
       <use xlink:href="#STIXGeneral-Regular-2212"/>
       <use xlink:href="#STIXGeneral-Regular-30" x="68.499985"/>
       <use xlink:href="#STIXGeneral-Regular-2e" x="118.499969"/>
       <use xlink:href="#STIXGeneral-Regular-30" x="143.499954"/>
       <use xlink:href="#STIXGeneral-Regular-30" x="193.499939"/>
       <use xlink:href="#STIXGeneral-Regular-36" x="243.499924"/>
      </g>
     </g>
    </g>
    <g id="xtick_2">
     <g id="line2d_2">
      <path d="M 223.577143 419.3475 
L 223.577143 29.225625 
" clip-path="url(#p2b4fb62203)" style="fill: none; stroke: #cccccc; stroke-width: 1.5; stroke-linecap: round"/>
     </g>
     <g id="text_2">
      <!-- −0.004 -->
      <g style="fill: #262626" transform="translate(187.256518 448.750977) scale(0.2475 -0.2475)">
       <defs>
        <path id="STIXGeneral-Regular-34" d="M 3027 1069 
L 2368 1069 
L 2368 0 
L 1869 0 
L 1869 1069 
L 77 1069 
L 77 1478 
L 2086 4326 
L 2368 4326 
L 2368 1478 
L 3027 1478 
L 3027 1069 
z
M 1869 1478 
L 1869 3674 
L 333 1478 
L 1869 1478 
z
" transform="scale(0.015625)"/>
       </defs>
       <use xlink:href="#STIXGeneral-Regular-2212"/>
       <use xlink:href="#STIXGeneral-Regular-30" x="68.499985"/>
       <use xlink:href="#STIXGeneral-Regular-2e" x="118.499969"/>
       <use xlink:href="#STIXGeneral-Regular-30" x="143.499954"/>
       <use xlink:href="#STIXGeneral-Regular-30" x="193.499939"/>
       <use xlink:href="#STIXGeneral-Regular-34" x="243.499924"/>
      </g>
     </g>
    </g>
    <g id="xtick_3">
     <g id="line2d_3">
      <path d="M 309.908571 419.3475 
L 309.908571 29.225625 
" clip-path="url(#p2b4fb62203)" style="fill: none; stroke: #cccccc; stroke-width: 1.5; stroke-linecap: round"/>
     </g>
     <g id="text_3">
      <!-- −0.002 -->
      <g style="fill: #262626" transform="translate(273.587946 448.750977) scale(0.2475 -0.2475)">
       <defs>
        <path id="STIXGeneral-Regular-32" d="M 3034 877 
L 2688 0 
L 186 0 
L 186 77 
L 1325 1286 
Q 1773 1754 1965 2144 
Q 2157 2534 2157 2950 
Q 2157 3379 1920 3616 
Q 1683 3853 1267 3853 
Q 922 3853 720 3673 
Q 518 3494 326 3021 
L 192 3053 
Q 301 3648 630 3987 
Q 960 4326 1523 4326 
Q 2054 4326 2380 4006 
Q 2707 3686 2707 3200 
Q 2707 2477 1888 1613 
L 832 486 
L 2330 486 
Q 2541 486 2665 569 
Q 2790 653 2944 915 
L 3034 877 
z
" transform="scale(0.015625)"/>
       </defs>
       <use xlink:href="#STIXGeneral-Regular-2212"/>
       <use xlink:href="#STIXGeneral-Regular-30" x="68.499985"/>
       <use xlink:href="#STIXGeneral-Regular-2e" x="118.499969"/>
       <use xlink:href="#STIXGeneral-Regular-30" x="143.499954"/>
       <use xlink:href="#STIXGeneral-Regular-30" x="193.499939"/>
       <use xlink:href="#STIXGeneral-Regular-32" x="243.499924"/>
      </g>
     </g>
    </g>
    <g id="xtick_4">
     <g id="line2d_4">
      <path d="M 396.24 419.3475 
L 396.24 29.225625 
" clip-path="url(#p2b4fb62203)" style="fill: none; stroke: #cccccc; stroke-width: 1.5; stroke-linecap: round"/>
     </g>
     <g id="text_4">
      <!-- 0.000 -->
      <g style="fill: #262626" transform="translate(368.39625 448.750977) scale(0.2475 -0.2475)">
       <use xlink:href="#STIXGeneral-Regular-30"/>
       <use xlink:href="#STIXGeneral-Regular-2e" x="49.999985"/>
       <use xlink:href="#STIXGeneral-Regular-30" x="74.999969"/>
       <use xlink:href="#STIXGeneral-Regular-30" x="124.999954"/>
       <use xlink:href="#STIXGeneral-Regular-30" x="174.999939"/>
      </g>
     </g>
    </g>
    <g id="xtick_5">
     <g id="line2d_5">
      <path d="M 482.571429 419.3475 
L 482.571429 29.225625 
" clip-path="url(#p2b4fb62203)" style="fill: none; stroke: #cccccc; stroke-width: 1.5; stroke-linecap: round"/>
     </g>
     <g id="text_5">
      <!-- 0.002 -->
      <g style="fill: #262626" transform="translate(454.727679 448.750977) scale(0.2475 -0.2475)">
       <use xlink:href="#STIXGeneral-Regular-30"/>
       <use xlink:href="#STIXGeneral-Regular-2e" x="49.999985"/>
       <use xlink:href="#STIXGeneral-Regular-30" x="74.999969"/>
       <use xlink:href="#STIXGeneral-Regular-30" x="124.999954"/>
       <use xlink:href="#STIXGeneral-Regular-32" x="174.999939"/>
      </g>
     </g>
    </g>
    <g id="xtick_6">
     <g id="line2d_6">
      <path d="M 568.902857 419.3475 
L 568.902857 29.225625 
" clip-path="url(#p2b4fb62203)" style="fill: none; stroke: #cccccc; stroke-width: 1.5; stroke-linecap: round"/>
     </g>
     <g id="text_6">
      <!-- 0.004 -->
      <g style="fill: #262626" transform="translate(541.059107 448.750977) scale(0.2475 -0.2475)">
       <use xlink:href="#STIXGeneral-Regular-30"/>
       <use xlink:href="#STIXGeneral-Regular-2e" x="49.999985"/>
       <use xlink:href="#STIXGeneral-Regular-30" x="74.999969"/>
       <use xlink:href="#STIXGeneral-Regular-30" x="124.999954"/>
       <use xlink:href="#STIXGeneral-Regular-34" x="174.999939"/>
      </g>
     </g>
    </g>
    <g id="xtick_7">
     <g id="line2d_7">
      <path d="M 655.234286 419.3475 
L 655.234286 29.225625 
" clip-path="url(#p2b4fb62203)" style="fill: none; stroke: #cccccc; stroke-width: 1.5; stroke-linecap: round"/>
     </g>
     <g id="text_7">
      <!-- 0.006 -->
      <g style="fill: #262626" transform="translate(627.390536 448.750977) scale(0.2475 -0.2475)">
       <use xlink:href="#STIXGeneral-Regular-30"/>
       <use xlink:href="#STIXGeneral-Regular-2e" x="49.999985"/>
       <use xlink:href="#STIXGeneral-Regular-30" x="74.999969"/>
       <use xlink:href="#STIXGeneral-Regular-30" x="124.999954"/>
       <use xlink:href="#STIXGeneral-Regular-36" x="174.999939"/>
      </g>
     </g>
    </g>
    <g id="text_8">
     <!-- $\ell$ -->
     <g style="fill: #262626" transform="translate(388.41 476.562656) scale(0.27 -0.27)">
      <defs>
       <path id="STIXGeneral-Italic-2113" d="M 493 2490 
L 582 2656 
Q 813 2496 1184 2496 
Q 1728 3296 2301 3846 
Q 2874 4397 3245 4397 
Q 3654 4397 3654 3968 
Q 3654 3450 3036 2938 
Q 2419 2426 1594 2304 
Q 678 826 678 397 
Q 678 122 909 122 
Q 1120 122 1398 365 
Q 1677 608 2182 1190 
L 2317 1082 
Q 1773 448 1462 189 
Q 1152 -70 864 -70 
Q 627 -70 467 74 
Q 307 218 307 486 
Q 307 1024 800 1882 
Q 877 2022 1056 2304 
Q 742 2317 493 2490 
z
M 1715 2534 
L 1722 2528 
Q 2470 2694 2966 3113 
Q 3462 3533 3462 3994 
Q 3462 4192 3238 4192 
Q 3002 4192 2714 3891 
Q 2342 3514 1715 2534 
z
" transform="scale(0.015625)"/>
      </defs>
      <use xlink:href="#STIXGeneral-Italic-2113" transform="translate(0 0.296875)"/>
     </g>
    </g>
   </g>
   <g id="matplotlib.axis_2">
    <g id="ytick_1">
     <g id="line2d_8">
      <path d="M 94.08 367.837902 
L 698.4 367.837902 
" clip-path="url(#p2b4fb62203)" style="fill: none; stroke: #cccccc; stroke-width: 1.5; stroke-linecap: round"/>
     </g>
     <g id="text_9">
      <!-- −4 -->
      <g style="fill: #262626" transform="translate(52.25125 376.28964) scale(0.2475 -0.2475)">
       <use xlink:href="#STIXGeneral-Regular-2212"/>
       <use xlink:href="#STIXGeneral-Regular-34" x="68.499985"/>
      </g>
     </g>
    </g>
    <g id="ytick_2">
     <g id="line2d_9">
      <path d="M 94.08 300.28433 
L 698.4 300.28433 
" clip-path="url(#p2b4fb62203)" style="fill: none; stroke: #cccccc; stroke-width: 1.5; stroke-linecap: round"/>
     </g>
     <g id="text_10">
      <!-- −2 -->
      <g style="fill: #262626" transform="translate(52.25125 308.736069) scale(0.2475 -0.2475)">
       <use xlink:href="#STIXGeneral-Regular-2212"/>
       <use xlink:href="#STIXGeneral-Regular-32" x="68.499985"/>
      </g>
     </g>
    </g>
    <g id="ytick_3">
     <g id="line2d_10">
      <path d="M 94.08 232.730759 
L 698.4 232.730759 
" clip-path="url(#p2b4fb62203)" style="fill: none; stroke: #cccccc; stroke-width: 1.5; stroke-linecap: round"/>
     </g>
     <g id="text_11">
      <!-- 0 -->
      <g style="fill: #262626" transform="translate(69.205 241.182497) scale(0.2475 -0.2475)">
       <use xlink:href="#STIXGeneral-Regular-30"/>
      </g>
     </g>
    </g>
    <g id="ytick_4">
     <g id="line2d_11">
      <path d="M 94.08 165.177187 
L 698.4 165.177187 
" clip-path="url(#p2b4fb62203)" style="fill: none; stroke: #cccccc; stroke-width: 1.5; stroke-linecap: round"/>
     </g>
     <g id="text_12">
      <!-- 2 -->
      <g style="fill: #262626" transform="translate(69.205 173.628926) scale(0.2475 -0.2475)">
       <use xlink:href="#STIXGeneral-Regular-32"/>
      </g>
     </g>
    </g>
    <g id="ytick_5">
     <g id="line2d_12">
      <path d="M 94.08 97.623616 
L 698.4 97.623616 
" clip-path="url(#p2b4fb62203)" style="fill: none; stroke: #cccccc; stroke-width: 1.5; stroke-linecap: round"/>
     </g>
     <g id="text_13">
      <!-- 4 -->
      <g style="fill: #262626" transform="translate(69.205 106.075354) scale(0.2475 -0.2475)">
       <use xlink:href="#STIXGeneral-Regular-34"/>
      </g>
     </g>
    </g>
    <g id="ytick_6">
     <g id="line2d_13">
      <path d="M 94.08 30.070045 
L 698.4 30.070045 
" clip-path="url(#p2b4fb62203)" style="fill: none; stroke: #cccccc; stroke-width: 1.5; stroke-linecap: round"/>
     </g>
     <g id="text_14">
      <!-- 6 -->
      <g style="fill: #262626" transform="translate(69.205 38.521783) scale(0.2475 -0.2475)">
       <use xlink:href="#STIXGeneral-Regular-36"/>
      </g>
     </g>
    </g>
    <g id="text_15">
     <!-- Average EC ($\chi_{\ell}$) -->
     <g style="fill: #262626" transform="translate(42.31125 315.276562) rotate(-90) scale(0.27 -0.27)">
      <defs>
       <path id="STIXGeneral-Regular-41" d="M 4525 0 
L 2893 0 
L 2893 122 
Q 3149 122 3245 179 
Q 3334 224 3334 333 
Q 3334 499 3213 781 
L 2950 1382 
L 1274 1382 
L 979 653 
Q 922 506 922 384 
Q 922 237 1027 179 
Q 1133 122 1370 122 
L 1370 0 
L 96 0 
L 96 122 
Q 365 147 486 316 
Q 608 486 902 1190 
L 2221 4314 
L 2349 4314 
L 3923 710 
Q 4064 378 4176 262 
Q 4288 147 4525 122 
L 4525 0 
z
M 2861 1645 
L 2118 3405 
L 1382 1645 
L 2861 1645 
z
" transform="scale(0.015625)"/>
       <path id="STIXGeneral-Regular-76" d="M 3053 2880 
L 3053 2784 
Q 2906 2771 2835 2688 
Q 2765 2605 2637 2285 
L 1818 230 
Q 1690 -90 1638 -90 
Q 1587 -90 1523 77 
Q 1510 96 1497 141 
Q 1485 186 1472 211 
L 704 2048 
Q 499 2534 403 2652 
Q 307 2771 122 2784 
L 122 2880 
L 1376 2880 
L 1376 2784 
Q 1210 2771 1146 2732 
Q 1082 2694 1082 2611 
Q 1082 2509 1139 2368 
L 1792 730 
L 2426 2387 
Q 2464 2483 2464 2579 
Q 2464 2758 2163 2784 
L 2163 2880 
L 3053 2880 
z
" transform="scale(0.015625)"/>
       <path id="STIXGeneral-Regular-65" d="M 2611 1050 
L 2714 1005 
Q 2330 -64 1376 -64 
Q 813 -64 486 329 
Q 160 723 160 1389 
Q 160 2074 525 2509 
Q 890 2944 1485 2944 
Q 2061 2944 2374 2502 
Q 2560 2246 2592 1773 
L 621 1773 
Q 646 1370 700 1158 
Q 755 947 915 730 
Q 1184 378 1626 378 
Q 1939 378 2153 531 
Q 2368 685 2611 1050 
z
M 634 1978 
L 1939 1978 
Q 1882 2381 1750 2547 
Q 1619 2714 1312 2714 
Q 1043 2714 864 2525 
Q 685 2336 634 1978 
z
" transform="scale(0.015625)"/>
       <path id="STIXGeneral-Regular-72" d="M 1024 2931 
L 1024 2342 
Q 1267 2688 1430 2816 
Q 1594 2944 1792 2944 
Q 1958 2944 2051 2854 
Q 2144 2765 2144 2605 
Q 2144 2470 2077 2393 
Q 2010 2317 1894 2317 
Q 1773 2317 1638 2445 
Q 1536 2541 1472 2541 
Q 1338 2541 1181 2355 
Q 1024 2170 1024 2016 
L 1024 576 
Q 1024 301 1133 205 
Q 1242 109 1568 96 
L 1568 0 
L 32 0 
L 32 96 
Q 339 154 412 224 
Q 486 294 486 538 
L 486 2138 
Q 486 2349 438 2435 
Q 390 2522 269 2522 
Q 166 2522 45 2496 
L 45 2598 
Q 448 2726 992 2944 
L 1024 2931 
z
" transform="scale(0.015625)"/>
       <path id="STIXGeneral-Regular-61" d="M 2829 422 
L 2829 243 
Q 2586 -64 2253 -64 
Q 1888 -64 1843 403 
L 1837 403 
Q 1427 -64 909 -64 
Q 608 -64 422 112 
Q 237 288 237 602 
Q 237 1050 685 1350 
Q 992 1555 1837 1869 
L 1837 2214 
Q 1837 2502 1699 2646 
Q 1562 2790 1338 2790 
Q 1146 2790 1018 2697 
Q 890 2605 890 2477 
Q 890 2419 909 2348 
Q 928 2278 928 2208 
Q 928 2112 841 2029 
Q 755 1946 634 1946 
Q 525 1946 441 2029 
Q 358 2112 358 2240 
Q 358 2547 685 2752 
Q 986 2944 1421 2944 
Q 1939 2944 2176 2656 
Q 2291 2522 2323 2384 
Q 2355 2246 2355 1946 
L 2355 723 
Q 2355 301 2554 301 
Q 2682 301 2829 422 
z
M 1837 813 
L 1837 1715 
Q 1248 1510 1018 1293 
Q 800 1094 800 800 
Q 800 557 921 432 
Q 1043 307 1242 307 
Q 1453 307 1613 410 
Q 1747 506 1792 589 
Q 1837 672 1837 813 
z
" transform="scale(0.015625)"/>
       <path id="STIXGeneral-Regular-67" d="M 3008 2483 
L 2477 2483 
Q 2598 2208 2598 1946 
Q 2598 1453 2265 1203 
Q 1933 954 1600 954 
Q 1530 954 1357 973 
L 1235 986 
Q 1107 947 979 812 
Q 851 678 851 582 
Q 851 435 1350 410 
L 2176 371 
Q 2528 358 2739 172 
Q 2950 -13 2950 -314 
Q 2950 -685 2566 -986 
Q 2035 -1395 1286 -1395 
Q 826 -1395 502 -1212 
Q 179 -1030 179 -774 
Q 179 -595 320 -419 
Q 461 -243 806 6 
Q 602 102 534 172 
Q 467 243 467 346 
Q 467 531 762 787 
Q 909 915 1037 1043 
Q 717 1203 579 1401 
Q 442 1600 442 1901 
Q 442 2336 752 2640 
Q 1062 2944 1510 2944 
Q 1766 2944 2022 2848 
L 2163 2797 
Q 2349 2733 2515 2733 
L 3008 2733 
L 3008 2483 
z
M 973 2163 
L 973 2144 
Q 973 1683 1155 1398 
Q 1338 1114 1632 1114 
Q 1850 1114 1978 1270 
Q 2106 1427 2106 1690 
Q 2106 2112 1914 2464 
Q 1754 2765 1446 2765 
Q 1222 2765 1097 2605 
Q 973 2445 973 2163 
z
M 2771 -410 
Q 2771 -230 2595 -163 
Q 2419 -96 1978 -96 
Q 1344 -96 941 -13 
Q 749 -243 688 -348 
Q 627 -454 627 -563 
Q 627 -774 880 -902 
Q 1133 -1030 1555 -1030 
Q 2099 -1030 2435 -860 
Q 2771 -691 2771 -410 
z
" transform="scale(0.015625)"/>
       <path id="STIXGeneral-Regular-20" transform="scale(0.015625)"/>
       <path id="STIXGeneral-Regular-45" d="M 3821 1082 
L 3526 0 
L 77 0 
L 77 122 
Q 442 147 538 252 
Q 634 358 634 730 
L 634 3520 
Q 634 3878 534 3987 
Q 435 4096 77 4115 
L 77 4237 
L 3469 4237 
L 3494 3322 
L 3334 3322 
Q 3264 3750 3085 3872 
Q 2906 3994 2349 3994 
L 1510 3994 
Q 1370 3994 1328 3952 
Q 1286 3910 1286 3763 
L 1286 2355 
L 2253 2355 
Q 2656 2355 2787 2470 
Q 2918 2586 2976 2970 
L 3123 2970 
L 3123 1472 
L 2976 1472 
Q 2918 1875 2790 1984 
Q 2662 2093 2253 2093 
L 1286 2093 
L 1286 538 
Q 1286 346 1420 291 
Q 1555 237 1933 237 
L 2163 237 
Q 2848 237 3136 403 
Q 3424 570 3642 1082 
L 3821 1082 
z
" transform="scale(0.015625)"/>
       <path id="STIXGeneral-Regular-43" d="M 3930 838 
L 4051 723 
Q 3482 -90 2304 -90 
Q 1376 -90 794 480 
Q 179 1082 179 2080 
Q 179 3014 755 3661 
Q 1357 4326 2310 4326 
Q 2720 4326 3072 4230 
Q 3475 4115 3514 4115 
Q 3725 4115 3782 4326 
L 3910 4326 
L 3968 2874 
L 3821 2874 
Q 3718 3334 3488 3584 
Q 3034 4070 2458 4070 
Q 1747 4070 1334 3548 
Q 922 3027 922 2182 
Q 922 1152 1382 653 
Q 1811 192 2522 192 
Q 2944 192 3251 339 
Q 3558 486 3930 838 
z
" transform="scale(0.015625)"/>
       <path id="STIXGeneral-Regular-28" d="M 1946 -1030 
L 1869 -1133 
Q 1126 -710 716 32 
Q 307 774 307 1613 
Q 307 3386 1888 4326 
L 1946 4224 
Q 1293 3667 1075 3126 
Q 858 2586 858 1632 
Q 858 685 1082 96 
Q 1306 -493 1946 -1030 
z
" transform="scale(0.015625)"/>
       <path id="STIXGeneral-Italic-3c7" d="M 3187 2739 
L 1363 480 
Q 1357 314 1357 38 
Q 1357 -531 1424 -726 
Q 1491 -922 1645 -922 
Q 1722 -922 1824 -803 
Q 1926 -685 2010 -448 
L 2112 -448 
Q 1939 -1325 1517 -1325 
Q 1312 -1325 1213 -1091 
Q 1114 -858 1114 -506 
Q 1114 -32 1165 288 
L -96 -1274 
L -691 -1274 
L 1146 934 
L 1146 1504 
Q 1146 1990 1085 2204 
Q 1024 2419 858 2419 
Q 774 2419 662 2307 
Q 550 2195 467 1952 
L 365 1952 
Q 416 2144 461 2272 
Q 506 2400 579 2541 
Q 653 2682 755 2752 
Q 858 2822 992 2822 
Q 1178 2822 1270 2617 
Q 1363 2413 1363 1901 
Q 1363 1882 1360 1818 
Q 1357 1754 1350 1571 
Q 1344 1389 1338 1114 
L 2592 2739 
L 3187 2739 
z
" transform="scale(0.015625)"/>
       <path id="STIXGeneral-Regular-29" d="M 186 4224 
L 262 4326 
Q 992 3891 1408 3148 
Q 1824 2406 1824 1581 
Q 1824 -166 243 -1133 
L 186 -1030 
Q 845 -486 1059 54 
Q 1274 595 1274 1562 
Q 1274 2534 1059 3120 
Q 845 3706 186 4224 
z
" transform="scale(0.015625)"/>
      </defs>
      <use xlink:href="#STIXGeneral-Regular-41" transform="translate(0 0.40625)"/>
      <use xlink:href="#STIXGeneral-Regular-76" transform="translate(72.199982 0.40625)"/>
      <use xlink:href="#STIXGeneral-Regular-65" transform="translate(122.199966 0.40625)"/>
      <use xlink:href="#STIXGeneral-Regular-72" transform="translate(166.59996 0.40625)"/>
      <use xlink:href="#STIXGeneral-Regular-61" transform="translate(199.899948 0.40625)"/>
      <use xlink:href="#STIXGeneral-Regular-67" transform="translate(244.299942 0.40625)"/>
      <use xlink:href="#STIXGeneral-Regular-65" transform="translate(294.299927 0.40625)"/>
      <use xlink:href="#STIXGeneral-Regular-20" transform="translate(338.699921 0.40625)"/>
      <use xlink:href="#STIXGeneral-Regular-45" transform="translate(363.699905 0.40625)"/>
      <use xlink:href="#STIXGeneral-Regular-43" transform="translate(424.799896 0.40625)"/>
      <use xlink:href="#STIXGeneral-Regular-20" transform="translate(491.499893 0.40625)"/>
      <use xlink:href="#STIXGeneral-Regular-28" transform="translate(516.499878 0.40625)"/>
      <use xlink:href="#STIXGeneral-Italic-3c7" transform="translate(549.799866 0.40625)"/>
      <use xlink:href="#STIXGeneral-Italic-2113" transform="translate(595.499863 -12.821875) scale(0.7)"/>
      <use xlink:href="#STIXGeneral-Regular-29" transform="translate(640.439233 0.40625)"/>
     </g>
    </g>
   </g>
   <g id="line2d_14">
    <path d="M 94.08 198.953973 
L 106.413061 198.953973 
L 118.746122 198.953973 
L 131.079184 198.953973 
L 143.412245 198.953973 
L 155.745306 198.953973 
L 168.078367 198.953973 
L 180.411429 215.842366 
L 192.74449 232.730759 
L 205.077551 232.730759 
L 217.410612 283.395937 
L 229.743673 350.949509 
L 242.076735 350.949509 
L 254.409796 401.614688 
L 266.742857 401.614688 
L 279.075918 401.614688 
L 291.40898 401.614688 
L 303.742041 350.949509 
L 316.075102 283.395937 
L 328.408163 283.395937 
L 340.741224 283.395937 
L 353.074286 232.730759 
L 365.407347 198.953973 
L 377.740408 80.735223 
L 390.073469 46.958437 
L 402.406531 232.730759 
L 414.739592 232.730759 
L 427.072653 232.730759 
L 439.405714 232.730759 
L 451.738776 232.730759 
L 464.071837 232.730759 
L 476.404898 232.730759 
L 488.737959 232.730759 
L 501.07102 232.730759 
L 513.404082 232.730759 
L 525.737143 232.730759 
L 538.070204 232.730759 
L 550.403265 232.730759 
L 562.736327 232.730759 
L 575.069388 232.730759 
L 587.402449 232.730759 
L 599.73551 232.730759 
L 612.068571 232.730759 
L 624.401633 232.730759 
L 636.734694 232.730759 
L 649.067755 232.730759 
L 661.400816 232.730759 
L 673.733878 232.730759 
L 686.066939 232.730759 
L 698.4 232.730759 
" clip-path="url(#p2b4fb62203)" style="fill: none; stroke: #1a1a1a; stroke-width: 2.25; stroke-linecap: round"/>
   </g>
   <g id="line2d_15">
    <path d="M 94.08 198.953973 
L 106.413061 198.953973 
L 118.746122 198.953973 
L 131.079184 198.953973 
L 143.412245 198.953973 
L 155.745306 198.953973 
L 168.078367 198.953973 
L 180.411429 198.953973 
L 192.74449 215.842366 
L 205.077551 266.507545 
L 217.410612 334.061116 
L 229.743673 334.061116 
L 242.076735 350.949509 
L 254.409796 367.837902 
L 266.742857 300.28433 
L 279.075918 266.507545 
L 291.40898 300.28433 
L 303.742041 300.28433 
L 316.075102 249.619152 
L 328.408163 215.842366 
L 340.741224 182.06558 
L 353.074286 148.288795 
L 365.407347 97.623616 
L 377.740408 80.735223 
L 390.073469 80.735223 
L 402.406531 232.730759 
L 414.739592 232.730759 
L 427.072653 232.730759 
L 439.405714 232.730759 
L 451.738776 232.730759 
L 464.071837 232.730759 
L 476.404898 232.730759 
L 488.737959 232.730759 
L 501.07102 232.730759 
L 513.404082 232.730759 
L 525.737143 232.730759 
L 538.070204 232.730759 
L 550.403265 232.730759 
L 562.736327 232.730759 
L 575.069388 232.730759 
L 587.402449 232.730759 
L 599.73551 232.730759 
L 612.068571 232.730759 
L 624.401633 232.730759 
L 636.734694 232.730759 
L 649.067755 232.730759 
L 661.400816 232.730759 
L 673.733878 232.730759 
L 686.066939 232.730759 
L 698.4 232.730759 
" clip-path="url(#p2b4fb62203)" style="fill: none; stroke: #4c72b0; stroke-width: 2.25; stroke-linecap: round"/>
   </g>
   <g id="line2d_16">
    <path d="M 94.08 198.953973 
L 106.413061 198.953973 
L 118.746122 198.953973 
L 131.079184 198.953973 
L 143.412245 198.953973 
L 155.745306 198.953973 
L 168.078367 198.953973 
L 180.411429 198.953973 
L 192.74449 215.842366 
L 205.077551 266.507545 
L 217.410612 300.28433 
L 229.743673 283.395937 
L 242.076735 266.507545 
L 254.409796 249.619152 
L 266.742857 266.507545 
L 279.075918 249.619152 
L 291.40898 232.730759 
L 303.742041 215.842366 
L 316.075102 198.953973 
L 328.408163 148.288795 
L 340.741224 114.512009 
L 353.074286 97.623616 
L 365.407347 97.623616 
L 377.740408 80.735223 
L 390.073469 97.623616 
L 402.406531 232.730759 
L 414.739592 232.730759 
L 427.072653 232.730759 
L 439.405714 232.730759 
L 451.738776 232.730759 
L 464.071837 232.730759 
L 476.404898 232.730759 
L 488.737959 232.730759 
L 501.07102 232.730759 
L 513.404082 232.730759 
L 525.737143 232.730759 
L 538.070204 232.730759 
L 550.403265 232.730759 
L 562.736327 232.730759 
L 575.069388 232.730759 
L 587.402449 232.730759 
L 599.73551 232.730759 
L 612.068571 232.730759 
L 624.401633 232.730759 
L 636.734694 232.730759 
L 649.067755 232.730759 
L 661.400816 232.730759 
L 673.733878 232.730759 
L 686.066939 232.730759 
L 698.4 232.730759 
" clip-path="url(#p2b4fb62203)" style="fill: none; stroke: #55a868; stroke-width: 2.25; stroke-linecap: round"/>
   </g>
   <g id="patch_3">
    <path d="M 94.08 419.3475 
L 94.08 29.225625 
" style="fill: none; stroke: #cccccc; stroke-width: 1.875; stroke-linejoin: miter; stroke-linecap: square"/>
   </g>
   <g id="patch_4">
    <path d="M 698.4 419.3475 
L 698.4 29.225625 
" style="fill: none; stroke: #cccccc; stroke-width: 1.875; stroke-linejoin: miter; stroke-linecap: square"/>
   </g>
   <g id="patch_5">
    <path d="M 94.08 419.3475 
L 698.4 419.3475 
" style="fill: none; stroke: #cccccc; stroke-width: 1.875; stroke-linejoin: miter; stroke-linecap: square"/>
   </g>
   <g id="patch_6">
    <path d="M 94.08 29.225625 
L 698.4 29.225625 
" style="fill: none; stroke: #cccccc; stroke-width: 1.875; stroke-linejoin: miter; stroke-linecap: square"/>
   </g>
   <g id="legend_1">
    <g id="patch_7">
     <path d="M 462.331406 154.309805 
L 681.075 154.309805 
Q 686.025 154.309805 686.025 149.359805 
L 686.025 46.550625 
Q 686.025 41.600625 681.075 41.600625 
L 462.331406 41.600625 
Q 457.381406 41.600625 457.381406 46.550625 
L 457.381406 149.359805 
Q 457.381406 154.309805 462.331406 154.309805 
z
" style="fill: #ffffff; opacity: 0.8; stroke: #cccccc; stroke-width: 1.5; stroke-linejoin: miter"/>
    </g>
    <g id="line2d_17">
     <path d="M 467.281406 60.163125 
L 492.031406 60.163125 
L 516.781406 60.163125 
" style="fill: none; stroke: #1a1a1a; stroke-width: 2.25; stroke-linecap: round"/>
    </g>
    <g id="text_16">
     <!-- 0.5gcc 1000k -->
     <g style="fill: #262626" transform="translate(536.581406 68.825625) scale(0.2475 -0.2475)">
      <defs>
       <path id="STIXGeneral-Regular-35" d="M 2803 4358 
L 2573 3814 
Q 2534 3731 2400 3731 
L 1158 3731 
L 902 3187 
Q 1606 3053 1920 2896 
Q 2234 2739 2502 2368 
Q 2726 2061 2726 1555 
Q 2726 1094 2576 780 
Q 2426 467 2099 224 
Q 1664 -90 1011 -90 
Q 646 -90 422 19 
Q 198 128 198 307 
Q 198 550 486 550 
Q 717 550 960 352 
Q 1210 147 1414 147 
Q 1747 147 2012 480 
Q 2278 813 2278 1229 
Q 2278 1843 1850 2189 
Q 1293 2637 486 2637 
Q 410 2637 410 2688 
L 416 2720 
L 1114 4237 
L 2438 4237 
Q 2547 4237 2608 4269 
Q 2669 4301 2746 4403 
L 2803 4358 
z
" transform="scale(0.015625)"/>
       <path id="STIXGeneral-Regular-63" d="M 2547 998 
L 2637 941 
Q 2362 403 2112 205 
Q 1786 -64 1376 -64 
Q 845 -64 502 336 
Q 160 736 160 1357 
Q 160 2170 698 2618 
Q 1094 2944 1562 2944 
Q 1965 2944 2256 2749 
Q 2547 2554 2547 2285 
Q 2547 2176 2457 2096 
Q 2368 2016 2246 2016 
Q 2022 2016 1939 2310 
L 1901 2451 
Q 1850 2630 1773 2694 
Q 1696 2758 1523 2758 
Q 1133 2758 893 2451 
Q 653 2144 653 1645 
Q 653 1094 928 745 
Q 1203 397 1645 397 
Q 1920 397 2118 528 
Q 2317 659 2547 998 
z
" transform="scale(0.015625)"/>
       <path id="STIXGeneral-Regular-31" d="M 2522 0 
L 755 0 
L 755 96 
Q 1107 115 1235 227 
Q 1363 339 1363 608 
L 1363 3482 
Q 1363 3795 1171 3795 
Q 1082 3795 883 3718 
L 710 3654 
L 710 3744 
L 1856 4326 
L 1914 4307 
L 1914 486 
Q 1914 275 2042 185 
Q 2170 96 2522 96 
L 2522 0 
z
" transform="scale(0.015625)"/>
       <path id="STIXGeneral-Regular-6b" d="M 3232 0 
L 1837 0 
L 1837 96 
L 1958 96 
Q 2093 96 2093 192 
Q 2093 250 2022 339 
L 1062 1606 
L 1062 429 
Q 1062 262 1142 185 
Q 1222 109 1414 102 
L 1542 96 
L 1542 0 
L 45 0 
L 45 96 
Q 390 154 457 214 
Q 525 275 525 525 
L 525 3610 
Q 525 3840 467 3920 
Q 410 4000 250 4000 
Q 211 4000 45 3987 
L 45 4090 
L 237 4141 
Q 621 4243 1037 4371 
L 1062 4358 
L 1062 1670 
L 1939 2451 
Q 2086 2586 2086 2675 
Q 2086 2739 2019 2761 
Q 1952 2784 1766 2790 
L 1766 2880 
L 3072 2880 
L 3072 2784 
Q 2752 2784 2505 2646 
Q 2259 2509 1690 1978 
L 1504 1805 
L 2483 563 
Q 2829 122 3232 96 
L 3232 0 
z
" transform="scale(0.015625)"/>
      </defs>
      <use xlink:href="#STIXGeneral-Regular-30"/>
      <use xlink:href="#STIXGeneral-Regular-2e" x="49.999985"/>
      <use xlink:href="#STIXGeneral-Regular-35" x="74.999969"/>
      <use xlink:href="#STIXGeneral-Regular-67" x="124.999954"/>
      <use xlink:href="#STIXGeneral-Regular-63" x="174.999939"/>
      <use xlink:href="#STIXGeneral-Regular-63" x="219.399933"/>
      <use xlink:href="#STIXGeneral-Regular-20" x="263.799927"/>
      <use xlink:href="#STIXGeneral-Regular-31" x="288.799911"/>
      <use xlink:href="#STIXGeneral-Regular-30" x="338.799896"/>
      <use xlink:href="#STIXGeneral-Regular-30" x="388.799881"/>
      <use xlink:href="#STIXGeneral-Regular-30" x="438.799866"/>
      <use xlink:href="#STIXGeneral-Regular-6b" x="488.79985"/>
     </g>
    </g>
    <g id="line2d_18">
     <path d="M 467.281406 95.257852 
L 492.031406 95.257852 
L 516.781406 95.257852 
" style="fill: none; stroke: #4c72b0; stroke-width: 2.25; stroke-linecap: round"/>
    </g>
    <g id="text_17">
     <!-- 1.0 gcc 2000k -->
     <g style="fill: #262626" transform="translate(536.581406 103.920352) scale(0.2475 -0.2475)">
      <use xlink:href="#STIXGeneral-Regular-31"/>
      <use xlink:href="#STIXGeneral-Regular-2e" x="49.999985"/>
      <use xlink:href="#STIXGeneral-Regular-30" x="74.999969"/>
      <use xlink:href="#STIXGeneral-Regular-20" x="124.999954"/>
      <use xlink:href="#STIXGeneral-Regular-67" x="149.999939"/>
      <use xlink:href="#STIXGeneral-Regular-63" x="199.999924"/>
      <use xlink:href="#STIXGeneral-Regular-63" x="244.399918"/>
      <use xlink:href="#STIXGeneral-Regular-20" x="288.799911"/>
      <use xlink:href="#STIXGeneral-Regular-32" x="313.799896"/>
      <use xlink:href="#STIXGeneral-Regular-30" x="363.799881"/>
      <use xlink:href="#STIXGeneral-Regular-30" x="413.799866"/>
      <use xlink:href="#STIXGeneral-Regular-30" x="463.79985"/>
      <use xlink:href="#STIXGeneral-Regular-6b" x="513.799835"/>
     </g>
    </g>
    <g id="line2d_19">
     <path d="M 467.281406 130.352578 
L 492.031406 130.352578 
L 516.781406 130.352578 
" style="fill: none; stroke: #55a868; stroke-width: 2.25; stroke-linecap: round"/>
    </g>
    <g id="text_18">
     <!-- 2.0 gcc 6000k -->
     <g style="fill: #262626" transform="translate(536.581406 139.015078) scale(0.2475 -0.2475)">
      <use xlink:href="#STIXGeneral-Regular-32"/>
      <use xlink:href="#STIXGeneral-Regular-2e" x="49.999985"/>
      <use xlink:href="#STIXGeneral-Regular-30" x="74.999969"/>
      <use xlink:href="#STIXGeneral-Regular-20" x="124.999954"/>
      <use xlink:href="#STIXGeneral-Regular-67" x="149.999939"/>
      <use xlink:href="#STIXGeneral-Regular-63" x="199.999924"/>
      <use xlink:href="#STIXGeneral-Regular-63" x="244.399918"/>
      <use xlink:href="#STIXGeneral-Regular-20" x="288.799911"/>
      <use xlink:href="#STIXGeneral-Regular-36" x="313.799896"/>
      <use xlink:href="#STIXGeneral-Regular-30" x="363.799881"/>
      <use xlink:href="#STIXGeneral-Regular-30" x="413.799866"/>
      <use xlink:href="#STIXGeneral-Regular-30" x="463.79985"/>
      <use xlink:href="#STIXGeneral-Regular-6b" x="513.799835"/>
     </g>
    </g>
   </g>
  </g>
 </g>
 <defs>
  <clipPath id="p2b4fb62203">
   <rect x="94.08" y="29.225625" width="604.32" height="390.121875"/>
  </clipPath>
 </defs>
</svg>
